<svg width="24" height="24" xmlns="http://www.w3.org/2000/svg">

 <g>
  <title>background</title>
  <rect fill="none" id="canvas_background" height="402" width="582" y="-1" x="-1"/>
 </g>
 <g>
  <title>Layer 1</title>
  <path fill="#f40c03" id="svg_1" d="m15.387,4.33c-2.1,0 -3.6,1.9 -5.1,3.3c0.2,0 0.5,-0.1 0.8,-0.1c0.5,0 1,0.1 1.5,0.3c0.8,-0.8 1.6,-1.7 2.8,-1.7c0.6,0 1.3,0.3 1.8,0.7c1,1 1,2.6 0,3.6l-2.6,2.6c-0.4,0.4 -1.2,0.7 -1.8,0.7c-1.4,0 -2.1,-0.9 -2.6,-2l-1.3,1.3c0.8,1.5 2,2.6 3.8,2.6c1.2,0 2.3,-0.5 3,-1.3l2.6,-2.6c0.9,-0.9 1.5,-2 1.5,-3.3c-0.2,-2.2 -2.2,-4.1 -4.4,-4.1zm-4.3,12.1l-0.9,0.9c-0.4,0.4 -1.2,0.7 -1.8,0.7c-0.6,0 -1.3,-0.3 -1.8,-0.7c-1,-1 -1,-2.7 0,-3.6l2.6,-2.6c0.4,-0.4 1.2,-0.7 1.8,-0.7c1.4,0 2.1,1 2.6,2l1.3,-1.3c-0.8,-1.5 -2,-2.6 -3.8,-2.6c-1.2,0 -2.3,0.5 -3,1.3l-2.6,2.6c-1.7,1.7 -1.7,4.4 0,6c1.6,1.6 4.4,1.7 5.9,0l1.9,-1.9c-0.3,0.1 -0.6,0.1 -0.9,0.1c-0.5,0 -0.9,0 -1.3,-0.2z"/>
 </g>
</svg>